<svg xmlns="http://www.w3.org/2000/svg" viewBox="0 0 19.5 4.69"><defs><style>.cls-1{fill:#a1a0bd;}</style></defs><title>Asset 2</title><g id="Layer_2" data-name="Layer 2"><g id="Layer_1-2" data-name="Layer 1"><path class="cls-1" d="M17.25,4.69A2.21,2.21,0,0,1,15.66,4a2.41,2.41,0,0,1,0-3.31,2.19,2.19,0,0,1,3.18,0,2.41,2.41,0,0,1,0,3.31A2.21,2.21,0,0,1,17.25,4.69Zm-7.5,0A2.21,2.21,0,0,1,8.16,4a2.41,2.41,0,0,1,0-3.31,2.19,2.19,0,0,1,3.18,0,2.41,2.41,0,0,1,0,3.31A2.21,2.21,0,0,1,9.75,4.69Zm-7.5,0A2.21,2.21,0,0,1,.66,4,2.41,2.41,0,0,1,.66.69a2.19,2.19,0,0,1,3.18,0A2.41,2.41,0,0,1,3.84,4,2.21,2.21,0,0,1,2.25,4.69Z"/></g></g></svg>