<svg width="23" height="21" viewBox="0 0 23 21" fill="none" xmlns="http://www.w3.org/2000/svg">
<path d="M22.75 16.125C22.75 17.015 22.4861 17.885 21.9916 18.6251C21.4971 19.3651 20.7943 19.9419 19.9721 20.2825C19.1498 20.6231 18.245 20.7122 17.3721 20.5385C16.4992 20.3649 15.6974 19.9363 15.068 19.307C14.4387 18.6776 14.0101 17.8758 13.8365 17.0029C13.6628 16.13 13.7519 15.2252 14.0925 14.4029C14.4331 13.5807 15.0099 12.8779 15.7499 12.3834C16.49 11.8889 17.36 11.625 18.25 11.625C19.4435 11.625 20.5881 12.0991 21.432 12.943C22.2759 13.7869 22.75 14.9315 22.75 16.125ZM21.625 0.375H2.5C1.90326 0.375 1.33097 0.612053 0.90901 1.03401C0.487053 1.45597 0.25 2.02826 0.25 2.625V18.375C0.25 18.9717 0.487053 19.544 0.90901 19.966C1.33097 20.3879 1.90326 20.625 2.5 20.625H13.2325C12.0753 19.3425 11.4547 17.6646 11.499 15.9377C11.5433 14.2109 12.249 12.567 13.4705 11.3455C14.692 10.124 16.3359 9.41829 18.0627 9.374C19.7896 9.32971 21.4675 9.95025 22.75 11.1075V6C22.75 5.70163 22.6315 5.41548 22.4205 5.2045C22.2095 4.99353 21.9234 4.875 21.625 4.875H3.625C3.32663 4.875 3.04048 4.75647 2.8295 4.54549C2.61853 4.33452 2.5 4.04837 2.5 3.75C2.5 3.45163 2.61853 3.16548 2.8295 2.9545C3.04048 2.74353 3.32663 2.625 3.625 2.625H22.75V1.5C22.75 1.20163 22.6315 0.915483 22.4205 0.704505C22.2095 0.493526 21.9234 0.375 21.625 0.375Z" fill="#4C49ED"/>
</svg>
