<svg xmlns="http://www.w3.org/2000/svg" viewBox="0 0 21 21"><defs><style>.cls-1{fill:#a1a0bd;}</style></defs><title>Asset 4</title><g id="Layer_2" data-name="Layer 2"><g id="Layer_1-2" data-name="Layer 1"><path class="cls-1" d="M12,14.25A2.25,2.25,0,0,1,14.25,12h4.5A2.25,2.25,0,0,1,21,14.25v4.5A2.25,2.25,0,0,1,18.75,21h-4.5A2.25,2.25,0,0,1,12,18.75Zm-12,0A2.25,2.25,0,0,1,2.25,12h4.5A2.25,2.25,0,0,1,9,14.25v4.5A2.25,2.25,0,0,1,6.75,21H2.25A2.25,2.25,0,0,1,0,18.75Zm12-12A2.25,2.25,0,0,1,14.25,0h4.5A2.25,2.25,0,0,1,21,2.25v4.5A2.25,2.25,0,0,1,18.75,9h-4.5A2.25,2.25,0,0,1,12,6.75Zm-12,0A2.25,2.25,0,0,1,2.25,0h4.5A2.25,2.25,0,0,1,9,2.25v4.5A2.25,2.25,0,0,1,6.75,9H2.25A2.25,2.25,0,0,1,0,6.75Z"/></g></g></svg>