<svg xmlns="http://www.w3.org/2000/svg" viewBox="0 0 18 24"><defs><style>.cls-1{fill:#a1a0bd;}</style></defs><title>Asset 5</title><g id="Layer_2" data-name="Layer 2"><g id="Layer_1-2" data-name="Layer 1"><path class="cls-1" d="M4.5,15H9a.75.75,0,0,1,0,1.5H4.5a.75.75,0,1,1,0-1.5Zm0-3h9a.75.75,0,0,1,0,1.5h-9a.75.75,0,1,1,0-1.5ZM3.75,9.75A.75.75,0,0,1,4.5,9h9a.75.75,0,0,1,0,1.5h-9a.75.75,0,0,1-.75-.75ZM4.5,6h9a.75.75,0,0,1,0,1.5h-9A.75.75,0,1,1,4.5,6ZM15,0H3A3,3,0,0,0,0,3V21a3,3,0,0,0,3,3H15a3,3,0,0,0,3-3V3a3,3,0,0,0-3-3Z"/></g></g></svg>