<svg xmlns="http://www.w3.org/2000/svg" viewBox="0 0 21 21"><defs><style>.cls-1{fill:#a1a0bd;}</style></defs><title>Asset 7</title><g id="Layer_2" data-name="Layer 2"><g id="Layer_1-2" data-name="Layer 1"><path class="cls-1" d="M15,1.5A1.5,1.5,0,0,1,16.5,0h3A1.5,1.5,0,0,1,21,1.5v18A1.5,1.5,0,0,1,19.5,21h-3A1.5,1.5,0,0,1,15,19.5ZM7.5,9A1.5,1.5,0,0,1,9,7.5h3A1.5,1.5,0,0,1,13.5,9V19.5A1.5,1.5,0,0,1,12,21H9a1.5,1.5,0,0,1-1.5-1.5ZM0,15a1.5,1.5,0,0,1,1.5-1.5h3A1.5,1.5,0,0,1,6,15v4.5A1.5,1.5,0,0,1,4.5,21h-3A1.5,1.5,0,0,1,0,19.5Z"/></g></g></svg>