<svg xmlns="http://www.w3.org/2000/svg" viewBox="0 0 20 24"><defs><style>.cls-1{fill:#a1a0bd;}</style></defs><title>Asset 8</title><g id="Layer_2" data-name="Layer 2"><g id="Layer_1-2" data-name="Layer 1"><path class="cls-1" d="M0,4C0,1.79,4.48,0,10,0S20,1.79,20,4V6c0,2.21-4.48,4-10,4S0,8.21,0,6Z"/><path class="cls-1" d="M0,9.5V14c0,2.21,4.48,4,10,4s10-1.79,10-4V9.5a9.77,9.77,0,0,1-2.19,1.19A21.67,21.67,0,0,1,10,12a21.7,21.7,0,0,1-7.81-1.31A9.76,9.76,0,0,1,0,9.5Z"/><path class="cls-1" d="M20,17.5a9.76,9.76,0,0,1-2.19,1.18A21.68,21.68,0,0,1,10,20a21.67,21.67,0,0,1-7.81-1.31A9.76,9.76,0,0,1,0,17.5V20c0,2.21,4.48,4,10,4s10-1.79,10-4Z"/></g></g></svg>