<svg xmlns="http://www.w3.org/2000/svg" viewBox="0 0 24 18"><defs><style>.cls-1{fill:#a1a0bd;}</style></defs><title>Asset 6</title><g id="Layer_2" data-name="Layer 2"><g id="Layer_1-2" data-name="Layer 1"><path class="cls-1" d="M2.25,0A2.25,2.25,0,0,0,0,2.25v3H9A.75.75,0,0,1,9.75,6a2.6,2.6,0,0,0,.46,1.44A2,2,0,0,0,12,8.25a2,2,0,0,0,1.79-.81A2.6,2.6,0,0,0,14.25,6,.75.75,0,0,1,15,5.25h9v-3A2.25,2.25,0,0,0,21.75,0Z"/><path class="cls-1" d="M24,6.75H15.67A4,4,0,0,1,15,8.31a3.53,3.53,0,0,1-3,1.44A3.53,3.53,0,0,1,9,8.31a4,4,0,0,1-.66-1.56H0v9A2.25,2.25,0,0,0,2.25,18h19.5A2.25,2.25,0,0,0,24,15.75Z"/></g></g></svg>