<svg xmlns="http://www.w3.org/2000/svg" viewBox="0 0 24 24"><defs><style>.cls-1{fill:#a1a0bd;}</style></defs><title>Asset 9</title><g id="Layer_2" data-name="Layer 2"><g id="Layer_1-2" data-name="Layer 1"><path class="cls-1" d="M11.73,18.71a1.41,1.41,0,1,0,0-2.8,1.4,1.4,0,1,0,0,2.8ZM8.24,9H9.48a.42.42,0,0,0,.4-.37,1.87,1.87,0,0,1,2-1.7,1.74,1.74,0,0,1,2,1.75c0,1-.56,1.39-1.45,2.06a3.42,3.42,0,0,0-1.75,3v.33a.38.38,0,0,0,.38.37h1.22a.37.37,0,0,0,.38-.37v-.16c0-1.08.41-1.39,1.51-2.23A3.66,3.66,0,0,0,16,8.61c0-2.27-1.91-3.36-4-3.36-1.9,0-4,.89-4.13,3.43A.36.36,0,0,0,8.1,9ZM24,12a12,12,0,1,1-3.51-8.49A12,12,0,0,1,24,12Z"/></g></g></svg>