<svg xmlns="http://www.w3.org/2000/svg" viewBox="0 0 396.84 395.74"><defs><style>.cls-1{fill:#a1a0bc;}</style></defs><title>Asset 1</title><g id="Layer_2" data-name="Layer 2"><g id="Layer_1-2" data-name="Layer 1"><path class="cls-1" d="M395.42,189.58h0A29.09,29.09,0,0,0,387,173.23a.78.78,0,0,0-.47-.22,9.83,9.83,0,0,0-5.37-4.59l-.83-.68c0,.16,0,.33,0,.49,0-.17,0-.33,0-.49-4.63-3.54-10.07-5-15.65-6.11l-.89-.39a74.53,74.53,0,0,1-10.55-4.51h0l-5.19-3.82a5.33,5.33,0,0,1-.73,2.18,5.33,5.33,0,0,0,.73-2.18,58,58,0,0,1-8.92-12,1.37,1.37,0,0,0-.18-.71,46.75,46.75,0,0,1-3-15.76,1,1,0,0,0,0-.73A54.69,54.69,0,0,1,340.6,108h0c3-4.75,6-9.54,7.37-15.06a33.06,33.06,0,0,0,0-19.38,35,35,0,0,0-9.61-15.79h0a19,19,0,0,0-6.76-5.23h0a29.51,29.51,0,0,0-16.5-5.22l-.37-.07-.37.07a28.58,28.58,0,0,0-16.58,3.59v0a48.52,48.52,0,0,0-11.22,6l-2.88,1-1.58.66-.89.43c-5.14,1.34-10.39,1.14-15.62,1.1l-.36-.09-.37,0-7.55-2.19-8.88-4.88a57.3,57.3,0,0,1-9.58-11,1.88,1.88,0,0,0-.31-.68L233.26,27l-.16-1.47-.6-1.56a1.19,1.19,0,0,0-.11-.67c-2.32-5.51-4.88-10.85-10.06-14.37l-.83-.79a10.77,10.77,0,0,0-5.44-3.66h0A28.59,28.59,0,0,0,199.54.07L199.18,0l-.37.07a29.39,29.39,0,0,0-16.55,3.67h0A15.8,15.8,0,0,0,175.4,8.2l-.89.76a29.2,29.2,0,0,0-8.63,11.36,11.27,11.27,0,0,0-1.61,4.41c-2.4,5.36-3,11.36-5.86,16.55a1.37,1.37,0,0,0-.29.68c-2.32,4-5.76,7.12-8.88,10.48h0l-8.42,5.17-1.23.24a6.64,6.64,0,0,0,2,.62,6.64,6.64,0,0,1-2-.62l-6.8,2.09L132,60c-5.25.11-10.51.25-15.7-.85v0c-.85-.91-2.07-.9-3.14-1.28l-2.89-.95c-3.16-2.59-6.9-4.15-10.55-5.88a1.59,1.59,0,0,0-.68-.28,27.62,27.62,0,0,0-15.81-3.5l-.74,0a27.73,27.73,0,0,0-15.76,4.45l-.84.58A15,15,0,0,0,59,57.59a.77.77,0,0,0-.47.22,31.73,31.73,0,0,0-9,14.2,33.43,33.43,0,0,0,.06,23.12,74.11,74.11,0,0,0,6.64,12.79h0c2.14,5.08,4.16,10.18,4.56,15.76a1,1,0,0,0,0,.72,40.51,40.51,0,0,1-3,15.77,1.06,1.06,0,0,0-.16.72,58,58,0,0,1-8.13,11.3l-6,4.55c-3,2-6.54,2.92-9.81,4.36h-.37l-.35.12c-5.79,1.52-11.74,2.66-16.57,6.59h0c-2.45,1.26-4.8,2.64-6.15,5.21l-.84.79a27.84,27.84,0,0,0-8,15.8,1.5,1.5,0,0,0-.18.7,23.29,23.29,0,0,0,.18,15.81,1.18,1.18,0,0,0,.09.73c1.38,6.1,4,11.52,8.66,15.81l.83.79a13,13,0,0,0,5.42,4.44h0c4.9,3.75,10.82,4.94,16.56,6.56a.93.93,0,0,0,.72.1,63.57,63.57,0,0,1,11.29,5.24c2.4.5,3.37,2.81,5.16,4.08a69.09,69.09,0,0,1,8.25,12.5h0c1.39,5.14,2.69,10.3,2.38,15.7a1,1,0,0,0,0,.73c-.67,5.49-2.63,10.59-4.79,15.62-7.35,10.74-11,22.17-6.52,35.1a8.13,8.13,0,0,0,.71,1.27c1.43,5.41,4.63,9.66,8.78,13.28l.83.79c1.75,1.9,3.5,3.79,6.13,4.48v0a27.77,27.77,0,0,0,16.59,5.06,1,1,0,0,0,.72,0,28.07,28.07,0,0,0,15.79-3.58,1.18,1.18,0,0,0,.71-.22c3.11-1.51,6.42-2.68,9.06-5l2.17-.89c1.72-.16,3.1-1.19,4.62-1.86a3.35,3.35,0,0,0,.69-.27c5.21-1.09,10.48-1,15.75-.85l.74.06,9,2.94,7.44,4.58a48.13,48.13,0,0,1,9.72,12h0l5.29,15.7,1.62,4.44a30.63,30.63,0,0,0,10.4,12.8,20.85,20.85,0,0,0,6.69,4,28.47,28.47,0,0,0,15.83,3.43,1,1,0,0,0,.72,0,28.29,28.29,0,0,0,15.83-4.14,18.55,18.55,0,0,0,6.13-4,31.88,31.88,0,0,0,11-15.8l.76-3,4.63-13.4h0c2.63-4.91,6.49-8.81,10.44-12.64l7.73-4.61,8.74-2.39a1,1,0,0,0,.72,0,59.82,59.82,0,0,1,15.68,1l0,.06a12,12,0,0,0,4.62,2l2.17.89a39.06,39.06,0,0,0,9.72,5.26v0a29.41,29.41,0,0,0,16.58,3.57,1,1,0,0,0,.72,0,28.75,28.75,0,0,0,15.83-4.9l.67-.35a12.67,12.67,0,0,0,5.45-4.31.85.85,0,0,0,.5-.22,35.16,35.16,0,0,0,10.42-16.4,33.36,33.36,0,0,0,0-19.41c-1.16-5-3.79-9.32-6.5-13.59a1.37,1.37,0,0,0-.27-.69,52.55,52.55,0,0,1-5.13-15.76l0-.74c-.2-5.37,1.15-10.51,2.37-15.67h0A51.21,51.21,0,0,1,348,242.83l3.77-3c4-2.58,8.44-4.14,12.84-5.8l0,0a37.53,37.53,0,0,0,15.69-6l.84-.62c1.81-1,3.67-1.86,4.58-3.87l.84-.78a28.51,28.51,0,0,0,8.7-15.81,1.3,1.3,0,0,0,.15-.71A25.32,25.32,0,0,0,395.42,189.58ZM152,140.23a2.29,2.29,0,0,1-2-1.93A2.29,2.29,0,0,0,152,140.23Zm-19.37,19.54a4.44,4.44,0,0,0-.26-.88A4.44,4.44,0,0,1,132.65,159.76Zm.11,1.29c0-.14,0-.28,0-.43C132.75,160.77,132.75,160.91,132.75,161.05Zm-11,62a25.34,25.34,0,0,0,3.73.33A25.33,25.33,0,0,1,121.72,223.09ZM132,233.18c0,.78.08,1.59.12,2.43C132,234.77,132,234,132,233.18Zm17.48,19.51c0,1.72-.73,2.62-2.2,2.9C148.71,255.31,149.45,254.42,149.45,252.7Zm32.86,16.91s0,.1,0,.15S182.3,269.65,182.31,269.6Zm0-.09c0-.11,0-.21,0-.31C182.35,269.3,182.33,269.4,182.32,269.51Zm77.6-29.66h0Zm5-12.66-.28,1.19q0,4.59,0,9.18v-9.18L258.59,239l-.71.82h0L249,250.15l-.79.77a12.38,12.38,0,0,1,.08,2,12.37,12.37,0,0,0-.08-2c-2.15,1.09-3.69,2.9-5.33,4.58a.85.85,0,0,0-.52.21,3.45,3.45,0,0,0,3.32.42,3.45,3.45,0,0,1-3.32-.42l-9.88,6.35a2.12,2.12,0,0,0-.68.31h0a103.54,103.54,0,0,1-15.77,6l-.37,0-.35.11h0l-15.77,2.11-.75,0L183.07,269a1.94,1.94,0,0,0-.7-.21h0a140.73,140.73,0,0,1-15.83-5.64,1.58,1.58,0,0,0-.69-.25h0l-11.36-7.22c-2.5-.4-3.88-2.19-5.13-4.14h0L139,239.81l-.7-.82-3.24.23,3.24-.23a41.17,41.17,0,0,0-4.77-8.11l-.81-2.21a10,10,0,0,0-.72,4.51,10,10,0,0,1,.72-4.51l-2.8-6.11h0l-3.68-15.71a1.4,1.4,0,0,0-.11-.72h0q0-7.87-.06-15.74l.05-.75h0l3.68-15.74a1.42,1.42,0,0,0,.17-.71h0l2.72-6.11.84-2.2h0l4.51-7.48.35-.67h0a132.85,132.85,0,0,1,11-12.62l4.61-3.9h0l11.86-7.45a1.18,1.18,0,0,0,.71-.22h0a140.35,140.35,0,0,1,15.82-5.7c11.27-2.18,22.5-2.38,33.7.49a5.31,5.31,0,0,1,0-.8,5.3,5.3,0,0,0,0,.8l15.64,5.59.86.59h0l11.27,7.42,4.46,3.77h0l10.31,12,.34.67h0l5,8.33,1,2.85a14,14,0,0,0,.64-6.1,14,14,0,0,1-.64,6.1l2,4.59a1.3,1.3,0,0,0,.15.72h0a143.45,143.45,0,0,1,3.67,15.75l0,.74h0l-.18,15.69c-.34.16-.6.35-.38.78h0c-.09,5.45-2.18,10.48-3.31,15.72h0ZM125.5,223.42a11.78,11.78,0,0,0,2.91-.35A11.77,11.77,0,0,1,125.5,223.42Zm221.27-67.64a3.3,3.3,0,0,1-.74.49A3.3,3.3,0,0,0,346.77,155.78Zm33.55,14c0,.18,0,.36,0,.54C380.33,170.12,380.33,169.94,380.33,169.76Z"/></g></g></svg>