<svg xmlns="http://www.w3.org/2000/svg" viewBox="0 0 15 11.25"><defs><style>.cls-1{fill:#4fd18b;fill-rule:evenodd;}</style></defs><title>Asset 1</title><g id="Layer_2" data-name="Layer 2"><g id="Layer_1-2" data-name="Layer 1"><path class="cls-1" d="M9,.63A.64.64,0,0,1,9.17.18.59.59,0,0,1,9.6,0h4.8a.59.59,0,0,1,.42.18A.64.64,0,0,1,15,.63v5a.64.64,0,0,1-.18.44.58.58,0,0,1-.85,0,.64.64,0,0,1-.18-.44V2.38L9.46,7.91a.61.61,0,0,1-.19.16.58.58,0,0,1-.49,0A.6.6,0,0,1,8.57,8L5.46,4.72,1.07,11a.6.6,0,0,1-.39.23.58.58,0,0,1-.44-.11.63.63,0,0,1-.24-.4.65.65,0,0,1,.09-.46l4.8-6.89a.61.61,0,0,1,.19-.18.58.58,0,0,1,.5,0,.6.6,0,0,1,.22.14L9,6.58l4.18-5.33H9.6a.59.59,0,0,1-.42-.18A.64.64,0,0,1,9,.63Z"/></g></g></svg>